<?xml version="1.0" encoding="UTF-8"?>
<svg version="1.1" xmlns="http://www.w3.org/2000/svg" width="500" height="500">
<path d="M0 0 C0.98871094 -0.01417969 1.97742188 -0.02835938 2.99609375 -0.04296875 C5.5625 0.1875 5.5625 0.1875 7.5625 2.1875 C7.96297444 4.51025177 8.3022104 6.84489357 8.5625 9.1875 C11.37014728 9.96176109 11.37014728 9.96176109 14.5625 10.1875 C15.92411311 9.22636134 17.26105198 8.22865841 18.5625 7.1875 C21.96171234 7.57537693 23.81715836 8.99459506 26.3125 11.25 C27.23289062 12.07177734 27.23289062 12.07177734 28.171875 12.91015625 C28.86023438 13.54244141 28.86023438 13.54244141 29.5625 14.1875 C28.8125 18.9375 28.8125 18.9375 26.5625 21.1875 C26.53874074 23.1806567 26.53874074 23.1806567 26.9375 25.3125 C27.14375 26.59125 27.35 27.87 27.5625 29.1875 C30.2025 29.1875 32.8425 29.1875 35.5625 29.1875 C35.5625 33.4775 35.5625 37.7675 35.5625 42.1875 C29.5625 44.1875 29.5625 44.1875 26.5625 44.1875 C26.3121423 47.56214024 26.3121423 47.56214024 26.5625 51.1875 C28.06235609 52.85460346 28.06235609 52.85460346 29.5625 54.1875 C29.5625 57.40984325 28.28340596 58.50237532 26.125 60.9375 C23.5625 63.1875 23.5625 63.1875 21.5625 63.1875 C21.5625 63.8475 21.5625 64.5075 21.5625 65.1875 C20.5725 65.1875 19.5825 65.1875 18.5625 65.1875 C18.5625 64.5275 18.5625 63.8675 18.5625 63.1875 C14.03109347 62.25369039 14.03109347 62.25369039 9.5625 63.1875 C8.54495132 65.0528245 8.54495132 65.0528245 7.875 67.25 C7.441875 68.549375 7.00875 69.84875 6.5625 71.1875 C2.2725 71.1875 -2.0175 71.1875 -6.4375 71.1875 C-7.79189668 68.47870665 -7.50251451 66.17816732 -7.4375 63.1875 C-12.48759595 62.24963918 -12.48759595 62.24963918 -17.4375 63.1875 C-17.4375 63.8475 -17.4375 64.5075 -17.4375 65.1875 C-22.13069322 64.30297356 -25.46642409 61.90348544 -28.4375 58.1875 C-28.4375 53.1875 -28.4375 53.1875 -26.4375 51.1875 C-26.39657063 48.85452567 -26.39508277 46.52044775 -26.4375 44.1875 C-29.4075 43.5275 -32.3775 42.8675 -35.4375 42.1875 C-35.4375 37.8975 -35.4375 33.6075 -35.4375 29.1875 C-33.766875 29.0328125 -33.766875 29.0328125 -32.0625 28.875 C-30.86625 28.648125 -29.67 28.42125 -28.4375 28.1875 C-26.15381035 25.45395051 -26.15381035 25.45395051 -26.6875 22.8125 C-27.4392475 20.18138375 -28.40453937 17.71910024 -29.4375 15.1875 C-28.22790384 13.81582395 -26.99398812 12.46556391 -25.75 11.125 C-25.06550781 10.37089844 -24.38101563 9.61679688 -23.67578125 8.83984375 C-21.4375 7.1875 -21.4375 7.1875 -18.80078125 7.37109375 C-16.4375 8.1875 -16.4375 8.1875 -14.3125 9.3125 C-12.28705586 10.51943231 -12.28705586 10.51943231 -9.4375 9.1875 C-8.45538795 7.35446677 -8.45538795 7.35446677 -7.8125 5.1875 C-6.12614476 0.11030143 -5.44466543 0.03540095 0 0 Z M-10.4375 23.1875 C-10.7675 24.1775 -11.0975 25.1675 -11.4375 26.1875 C-12.0975 26.1875 -12.7575 26.1875 -13.4375 26.1875 C-15.49451803 29.5832123 -15.70719117 32.2492659 -15.6875 36.1875 C-15.69265625 37.21875 -15.6978125 38.25 -15.703125 39.3125 C-15.44249165 42.13347278 -14.89046344 43.78895718 -13.4375 46.1875 C-12.7775 46.1875 -12.1175 46.1875 -11.4375 46.1875 C-11.1075 47.1775 -10.7775 48.1675 -10.4375 49.1875 C-5.62957875 52.43284684 -1.06918616 53.1785243 4.5625 52.1875 C9.26776133 50.39501949 12.57830676 47.79827609 15.125 43.4375 C17.05609819 38.88869094 16.9222202 34.89422377 15.5625 30.1875 C13.2557008 25.73867297 11.03136758 23.42193379 6.5625 21.1875 C5.9025 20.8575 5.2425 20.5275 4.5625 20.1875 C-1.10419069 19.59816417 -5.58884682 19.9146591 -10.4375 23.1875 Z " fill="#232323" transform="translate(245.4375,242.8125)"/>
<path d="M0 0 C18.81 0 37.62 0 57 0 C57 5.28 57 10.56 57 16 C50.4 16 43.8 16 37 16 C37 37.45 37 58.9 37 81 C31.39 81 25.78 81 20 81 C19 80 19 80 18.87974548 77.45005798 C18.88196609 76.31532547 18.88418671 75.18059296 18.88647461 74.01147461 C18.88655014 72.73022202 18.88662567 71.44896942 18.88670349 70.12889099 C18.89181091 68.72004152 18.89702691 67.31119244 18.90234375 65.90234375 C18.90420798 64.46887766 18.90563186 63.03541093 18.90663147 61.60194397 C18.91045628 57.82240043 18.92028623 54.0428951 18.93133545 50.2633667 C18.94155037 46.40930702 18.94612926 42.55524118 18.95117188 38.70117188 C18.96190854 31.13409713 18.97898451 23.56705391 19 16 C17.71222656 16.01160156 16.42445313 16.02320313 15.09765625 16.03515625 C13.41927228 16.0445327 11.74088674 16.05363305 10.0625 16.0625 C8.78729492 16.07506836 8.78729492 16.07506836 7.48632812 16.08789062 C6.67744141 16.09111328 5.86855469 16.09433594 5.03515625 16.09765625 C4.2862915 16.10289307 3.53742676 16.10812988 2.76586914 16.11352539 C1 16 1 16 0 15 C0 10.05 0 5.1 0 0 Z " fill="#202121" transform="translate(277,233)"/>
<path d="M0 0 C5.94 0 11.88 0 18 0 C18 26.73 18 53.46 18 81 C12.06 81 6.12 81 0 81 C0 54.27 0 27.54 0 0 Z " fill="#111111" transform="translate(179,233)"/>
<path d="M0 0 C3.25543229 0.34879632 4.01873107 1.02133261 6.25 3.5625 C6.8275 4.366875 7.405 5.17125 8 6 C5.69 5.34 3.38 4.68 1 4 C0.67 2.68 0.34 1.36 0 0 Z " fill="#777777" transform="translate(264,250)"/>
</svg>
